<svg width="45" height="45" viewBox="0 0 45 45" fill="none" xmlns="http://www.w3.org/2000/svg">
<rect width="45" height="45" rx="22.5" fill="white"/>
<path d="M28 24.7188C28 25.3877 27.6797 26.2482 27.0587 27.2401C26.4513 28.2102 25.6253 29.1976 24.7743 30.0952C23.9271 30.9888 23.0764 31.7709 22.4357 32.3308C22.2759 32.4705 22.1295 32.596 22 32.7055C21.8705 32.596 21.7241 32.4705 21.5643 32.3308C20.9236 31.7709 20.0729 30.9888 19.2257 30.0952C18.3747 29.1976 17.5487 28.2102 16.9413 27.2401C16.3203 26.2482 16 25.3877 16 24.7188C16 24.0108 16.3469 22.9163 16.9957 21.5615C17.6261 20.2451 18.476 18.8137 19.3396 17.4787C20.201 16.1472 21.0642 14.9299 21.7129 14.0444C21.8142 13.9061 21.9102 13.7761 22 13.6551C22.0898 13.7761 22.1858 13.9061 22.2871 14.0444C22.9358 14.9299 23.799 16.1472 24.6604 17.4787C25.524 18.8137 26.3739 20.2451 27.0043 21.5615C27.6531 22.9163 28 24.0108 28 24.7188Z" stroke="#06C569" stroke-width="2"/>
<path d="M28 24.7188C28 25.3877 27.6797 26.2482 27.0587 27.2401C26.4513 28.2102 25.6253 29.1976 24.7743 30.0952C23.9271 30.9888 23.0764 31.7709 22.4357 32.3308C22.2759 32.4705 22.1295 32.596 22 32.7055C21.8705 32.596 21.7241 32.4705 21.5643 32.3308C20.9236 31.7709 20.0729 30.9888 19.2257 30.0952C18.3747 29.1976 17.5487 28.2102 16.9413 27.2401C16.3203 26.2482 16 25.3877 16 24.7188C16 24.0108 16.3469 22.9163 16.9957 21.5615C17.6261 20.2451 18.476 18.8137 19.3396 17.4787C20.201 16.1472 21.0642 14.9299 21.7129 14.0444C21.8142 13.9061 21.9102 13.7761 22 13.6551C22.0898 13.7761 22.1858 13.9061 22.2871 14.0444C22.9358 14.9299 23.799 16.1472 24.6604 17.4787C25.524 18.8137 26.3739 20.2451 27.0043 21.5615C27.6531 22.9163 28 24.0108 28 24.7188Z" stroke="black" stroke-opacity="0.14" stroke-width="2"/>
</svg>
