<svg width="27" height="20" viewBox="0 0 27 20" fill="none" xmlns="http://www.w3.org/2000/svg">
<rect x="1" y="4.70972" width="25" height="3.22581" rx="1.6129" stroke="#06C569" stroke-width="2"/>
<rect x="1" y="4.70972" width="25" height="3.22581" rx="1.6129" stroke="black" stroke-opacity="0.14" stroke-width="2"/>
<path d="M6 2C6 1.44772 6.44772 1 7 1H20C20.5523 1 21 1.44772 21 2V19H6V2Z" fill="white"/>
<path d="M6 2C6 1.44772 6.44772 1 7 1H20C20.5523 1 21 1.44772 21 2V19H6V2Z" stroke="#06C569" stroke-width="2"/>
<path d="M6 2C6 1.44772 6.44772 1 7 1H20C20.5523 1 21 1.44772 21 2V19H6V2Z" stroke="black" stroke-opacity="0.14" stroke-width="2"/>
</svg>
