<svg width="25" height="25" viewBox="0 0 25 25" fill="none" xmlns="http://www.w3.org/2000/svg">
<path d="M17.991 11.914C18.0217 15.2128 20.885 16.3105 20.9166 16.3245C20.8924 16.4019 20.4591 17.8889 19.4082 19.4248C18.4996 20.7527 17.5567 22.0757 16.0712 22.1031C14.6118 22.13 14.1424 21.2376 12.4737 21.2376C10.8055 21.2376 10.284 22.0757 8.90239 22.13C7.46859 22.1843 6.37675 20.6941 5.46073 19.3711C3.58875 16.6648 2.15822 11.7237 4.07907 8.38841C5.03329 6.73206 6.73866 5.68327 8.58956 5.65637C9.99749 5.62954 11.3265 6.60359 12.1871 6.60359C13.0473 6.60359 14.6622 5.43222 16.36 5.60423C17.0706 5.63383 19.0657 5.89127 20.3468 7.76643C20.2435 7.83042 17.9663 9.15613 17.991 11.914M15.248 3.81379C16.0093 2.89236 16.5216 1.60971 16.3818 0.333374C15.2846 0.377469 13.9578 1.06455 13.1708 1.98543C12.4654 2.80098 11.8478 4.10623 12.0144 5.35727C13.2375 5.45191 14.4868 4.73577 15.2481 3.81379" fill="black"/>
</svg>
