<svg width="19" height="18" viewBox="0 0 19 18" fill="none" xmlns="http://www.w3.org/2000/svg">
<path d="M16.375 11.25C16.3733 10.7998 16.2367 10.3604 15.9826 9.98873C15.7286 9.61703 15.3689 9.33009 14.95 9.16501L16.3525 3.91501C16.3818 3.8032 16.3849 3.68613 16.3614 3.57294C16.338 3.45975 16.2888 3.35351 16.2175 3.26251C16.1447 3.17724 16.0536 3.10939 15.9511 3.06396C15.8485 3.01853 15.7371 2.99668 15.625 3.00001H5.35L5.1025 2.05501C5.05947 1.89519 4.96478 1.7541 4.83319 1.65371C4.70161 1.55332 4.54051 1.49928 4.375 1.50001H2.875V3.00001H3.7975L5.6575 9.94501C5.70145 10.1086 5.7995 10.2526 5.93569 10.3533C6.07188 10.4541 6.23818 10.5058 6.4075 10.5H14.125C14.3239 10.5 14.5147 10.579 14.6553 10.7197C14.796 10.8603 14.875 11.0511 14.875 11.25C14.875 11.4489 14.796 11.6397 14.6553 11.7803C14.5147 11.921 14.3239 12 14.125 12H4.375C4.17609 12 3.98532 12.079 3.84467 12.2197C3.70402 12.3603 3.625 12.5511 3.625 12.75C3.625 12.9489 3.70402 13.1397 3.84467 13.2803C3.98532 13.421 4.17609 13.5 4.375 13.5H5.26C5.13665 13.8399 5.09702 14.2044 5.14445 14.5628C5.19188 14.9213 5.32498 15.263 5.53249 15.559C5.73999 15.8551 6.01579 16.0968 6.33651 16.2637C6.65724 16.4305 7.01346 16.5177 7.375 16.5177C7.73654 16.5177 8.09276 16.4305 8.41349 16.2637C8.73421 16.0968 9.01001 15.8551 9.21751 15.559C9.42502 15.263 9.55812 14.9213 9.60555 14.5628C9.65299 14.2044 9.61335 13.8399 9.49 13.5H11.26C11.1477 13.8095 11.1047 14.1398 11.134 14.4677C11.1633 14.7956 11.2642 15.113 11.4295 15.3977C11.5949 15.6823 11.8207 15.9272 12.091 16.1151C12.3614 16.303 12.6696 16.4292 12.9941 16.485C13.3185 16.5407 13.6512 16.5246 13.9687 16.4377C14.2863 16.3509 14.5809 16.1954 14.8318 15.9823C15.0827 15.7691 15.2837 15.5035 15.4208 15.2042C15.5578 14.9049 15.6276 14.5792 15.625 14.25C15.6236 13.8625 15.5201 13.4823 15.325 13.1475C15.6457 12.9453 15.9101 12.6653 16.0937 12.3336C16.2773 12.0019 16.374 11.6291 16.375 11.25ZM13.4425 9.00001H7L5.755 4.50001H14.65L13.4425 9.00001ZM7.375 15C7.22666 15 7.08166 14.956 6.95832 14.8736C6.83499 14.7912 6.73886 14.6741 6.68209 14.537C6.62532 14.4 6.61047 14.2492 6.63941 14.1037C6.66835 13.9582 6.73978 13.8246 6.84467 13.7197C6.94956 13.6148 7.0832 13.5434 7.22868 13.5144C7.37417 13.4855 7.52497 13.5003 7.66201 13.5571C7.79906 13.6139 7.91619 13.71 7.9986 13.8333C8.08101 13.9567 8.125 14.1017 8.125 14.25C8.125 14.4489 8.04598 14.6397 7.90533 14.7803C7.76468 14.921 7.57391 15 7.375 15ZM13.375 15C13.2267 15 13.0817 14.956 12.9583 14.8736C12.835 14.7912 12.7389 14.6741 12.6821 14.537C12.6253 14.4 12.6105 14.2492 12.6394 14.1037C12.6684 13.9582 12.7398 13.8246 12.8447 13.7197C12.9496 13.6148 13.0832 13.5434 13.2287 13.5144C13.3742 13.4855 13.525 13.5003 13.662 13.5571C13.7991 13.6139 13.9162 13.71 13.9986 13.8333C14.081 13.9567 14.125 14.1017 14.125 14.25C14.125 14.4489 14.046 14.6397 13.9053 14.7803C13.7647 14.921 13.5739 15 13.375 15Z" fill="black"/>
</svg>
