<svg width="16" height="16" viewBox="0 0 16 16" fill="none" xmlns="http://www.w3.org/2000/svg">
<path d="M14.3334 10C14.3319 9.59981 14.2104 9.20926 13.9846 8.87886C13.7588 8.54846 13.439 8.2934 13.0667 8.14667L14.3134 3.48C14.3394 3.38061 14.3421 3.27655 14.3213 3.17594C14.3005 3.07533 14.2567 2.98089 14.1934 2.9C14.1286 2.82421 14.0477 2.7639 13.9565 2.72352C13.8654 2.68313 13.7664 2.66371 13.6667 2.66667H4.53337L4.31337 1.82667C4.27512 1.68461 4.19096 1.55919 4.07399 1.46996C3.95702 1.38073 3.81382 1.33269 3.66671 1.33333H2.33337V2.66667H3.15337L4.80671 8.84C4.84577 8.98544 4.93293 9.11337 5.05399 9.20295C5.17505 9.29253 5.32287 9.33849 5.47337 9.33333H12.3334C12.5102 9.33333 12.6798 9.40357 12.8048 9.5286C12.9298 9.65362 13 9.82319 13 10C13 10.1768 12.9298 10.3464 12.8048 10.4714C12.6798 10.5964 12.5102 10.6667 12.3334 10.6667H3.66671C3.4899 10.6667 3.32033 10.7369 3.1953 10.8619C3.07028 10.987 3.00004 11.1565 3.00004 11.3333C3.00004 11.5101 3.07028 11.6797 3.1953 11.8047C3.32033 11.9298 3.4899 12 3.66671 12H4.45337C4.34373 12.3021 4.3085 12.6261 4.35066 12.9447C4.39282 13.2633 4.51114 13.5671 4.69559 13.8302C4.88003 14.0934 5.12518 14.3083 5.41028 14.4566C5.69537 14.6049 6.012 14.6824 6.33337 14.6824C6.65474 14.6824 6.97138 14.6049 7.25647 14.4566C7.54156 14.3083 7.78671 14.0934 7.97116 13.8302C8.15561 13.5671 8.27393 13.2633 8.31609 12.9447C8.35825 12.6261 8.32302 12.3021 8.21337 12H9.78671C9.6869 12.2751 9.64866 12.5687 9.6747 12.8602C9.70074 13.1516 9.79042 13.4338 9.9374 13.6868C10.0844 13.9398 10.2851 14.1575 10.5254 14.3245C10.7657 14.4915 11.0397 14.6037 11.3281 14.6533C11.6165 14.7029 11.9122 14.6885 12.1945 14.6113C12.4767 14.5341 12.7386 14.3959 12.9616 14.2064C13.1846 14.017 13.3634 13.7809 13.4852 13.5149C13.607 13.2488 13.669 12.9593 13.6667 12.6667C13.6655 12.3222 13.5735 11.9842 13.4 11.6867C13.6851 11.5069 13.9202 11.2581 14.0833 10.9632C14.2465 10.6683 14.3325 10.337 14.3334 10ZM11.7267 8H6.00004L4.89337 4H12.8L11.7267 8ZM6.33337 13.3333C6.20152 13.3333 6.07263 13.2942 5.96299 13.221C5.85336 13.1477 5.76791 13.0436 5.71745 12.9218C5.667 12.8 5.65379 12.6659 5.67952 12.5366C5.70524 12.4073 5.76873 12.2885 5.86197 12.1953C5.9552 12.102 6.07399 12.0385 6.20331 12.0128C6.33263 11.9871 6.46668 12.0003 6.5885 12.0507C6.71031 12.1012 6.81443 12.1867 6.88769 12.2963C6.96094 12.4059 7.00004 12.5348 7.00004 12.6667C7.00004 12.8435 6.9298 13.013 6.80478 13.1381C6.67975 13.2631 6.51019 13.3333 6.33337 13.3333ZM11.6667 13.3333C11.5349 13.3333 11.406 13.2942 11.2963 13.221C11.1867 13.1477 11.1012 13.0436 11.0508 12.9218C11.0003 12.8 10.9871 12.6659 11.0129 12.5366C11.0386 12.4073 11.1021 12.2885 11.1953 12.1953C11.2885 12.102 11.4073 12.0385 11.5366 12.0128C11.666 11.9871 11.8 12.0003 11.9218 12.0507C12.0436 12.1012 12.1478 12.1867 12.221 12.2963C12.2943 12.4059 12.3334 12.5348 12.3334 12.6667C12.3334 12.8435 12.2631 13.013 12.1381 13.1381C12.0131 13.2631 11.8435 13.3333 11.6667 13.3333Z" fill="black"/>
</svg>
