<svg width="16" height="16" viewBox="0 0 16 16" fill="none" xmlns="http://www.w3.org/2000/svg">
<path d="M10.25 2H14.75M10.25 10.25H14.75M10.25 5.75H14.75M10.25 14H14.75M1.63475 6.11525C2.01875 6.5 2.6375 6.5 3.875 6.5C5.1125 6.5 5.73125 6.5 6.11525 6.11525C6.5 5.73125 6.5 5.1125 6.5 3.875C6.5 2.6375 6.5 2.01875 6.11525 1.63475C5.73125 1.25 5.1125 1.25 3.875 1.25C2.6375 1.25 2.01875 1.25 1.63475 1.63475C1.25 2.01875 1.25 2.6375 1.25 3.875C1.25 5.1125 1.25 5.73125 1.63475 6.11525ZM1.63475 14.3652C2.01875 14.75 2.6375 14.75 3.875 14.75C5.1125 14.75 5.73125 14.75 6.11525 14.3652C6.5 13.9812 6.5 13.3625 6.5 12.125C6.5 10.8875 6.5 10.2687 6.11525 9.88475C5.73125 9.5 5.1125 9.5 3.875 9.5C2.6375 9.5 2.01875 9.5 1.63475 9.88475C1.25 10.2687 1.25 10.8875 1.25 12.125C1.25 13.3625 1.25 13.9812 1.63475 14.3652Z" stroke="black" stroke-width="2" stroke-linecap="round" stroke-linejoin="round"/>
</svg>
