<svg width="20" height="20" viewBox="0 0 20 20" fill="none" xmlns="http://www.w3.org/2000/svg">
<path d="M18.0916 16.9083L15 13.8417C16.2001 12.3453 16.7812 10.4461 16.624 8.53442C16.4667 6.62275 15.583 4.84399 14.1546 3.56387C12.7261 2.28376 10.8615 1.59959 8.94408 1.65206C7.02668 1.70453 5.20225 2.48964 3.84593 3.84595C2.48962 5.20227 1.70451 7.0267 1.65204 8.9441C1.59957 10.8615 2.28374 12.7261 3.56385 14.1546C4.84397 15.5831 6.62273 16.4668 8.5344 16.624C10.4461 16.7813 12.3453 16.2001 13.8416 15L16.9083 18.0667C16.9858 18.1448 17.078 18.2068 17.1795 18.2491C17.281 18.2914 17.39 18.3132 17.5 18.3132C17.61 18.3132 17.7189 18.2914 17.8205 18.2491C17.922 18.2068 18.0142 18.1448 18.0916 18.0667C18.2418 17.9113 18.3258 17.7036 18.3258 17.4875C18.3258 17.2714 18.2418 17.0637 18.0916 16.9083ZM9.16665 15C8.01292 15 6.88511 14.6579 5.92582 14.0169C4.96653 13.3759 4.21886 12.4649 3.77735 11.399C3.33584 10.3331 3.22032 9.1602 3.4454 8.02864C3.67048 6.89709 4.22605 5.85768 5.04186 5.04188C5.85766 4.22607 6.89707 3.6705 8.02862 3.44542C9.16018 3.22034 10.3331 3.33586 11.399 3.77737C12.4649 4.21888 13.3759 4.96655 14.0169 5.92584C14.6579 6.88513 15 8.01294 15 9.16667C15 10.7138 14.3854 12.1975 13.2914 13.2915C12.1975 14.3854 10.7137 15 9.16665 15Z" fill="#9CA3AF"/>
</svg>
