<svg width="25" height="24" viewBox="0 0 25 24" fill="none" xmlns="http://www.w3.org/2000/svg">
<path d="M22.75 12.3117C22.75 11.4547 22.6805 10.8293 22.53 10.1808H12.7437V14.0489H18.488C18.3722 15.0102 17.7468 16.4579 16.357 17.4307L16.3376 17.5602L19.4318 19.9572L19.6462 19.9786C21.615 18.1603 22.75 15.485 22.75 12.3117Z" fill="#4285F4"/>
<path d="M12.7437 22.5034C15.5579 22.5034 17.9205 21.5768 19.6462 19.9786L16.357 17.4307C15.4769 18.0445 14.2956 18.473 12.7437 18.473C9.98733 18.473 7.64791 16.6548 6.81397 14.1416L6.69173 14.152L3.4743 16.642L3.43222 16.7589C5.14625 20.1639 8.667 22.5034 12.7437 22.5034Z" fill="#34A853"/>
<path d="M6.81397 14.1416C6.59392 13.493 6.46658 12.7981 6.46658 12.0801C6.46658 11.362 6.59392 10.6671 6.80239 10.0186L6.79656 9.88047L3.53881 7.35046L3.43222 7.40116C2.72579 8.81411 2.32043 10.4008 2.32043 12.0801C2.32043 13.7594 2.72579 15.346 3.43222 16.7589L6.81397 14.1416Z" fill="#FBBC05"/>
<path d="M12.7437 5.68716C14.7009 5.68716 16.0211 6.53259 16.774 7.23911L19.7156 4.3669C17.909 2.68761 15.5579 1.65686 12.7437 1.65686C8.66699 1.65686 5.14625 3.99628 3.43222 7.40118L6.80239 10.0186C7.6479 7.50546 9.98733 5.68716 12.7437 5.68716Z" fill="#EB4335"/>
</svg>
