<svg width="45" height="45" viewBox="0 0 45 45" fill="none" xmlns="http://www.w3.org/2000/svg">
<rect width="45" height="45" rx="22.5" fill="white"/>
<path d="M13 16C13 15.4477 13.4477 15 14 15H30C30.5523 15 31 15.4477 31 16V32C31 32.5523 30.5523 33 30 33H14C13.4477 33 13 32.5523 13 32V16Z" fill="white"/>
<path d="M13 16C13 15.4477 13.4477 15 14 15H30C30.5523 15 31 15.4477 31 16V32C31 32.5523 30.5523 33 30 33H14C13.4477 33 13 32.5523 13 32V16Z" stroke="#06C569" stroke-width="2"/>
<path d="M13 16C13 15.4477 13.4477 15 14 15H30C30.5523 15 31 15.4477 31 16V32C31 32.5523 30.5523 33 30 33H14C13.4477 33 13 32.5523 13 32V16Z" stroke="black" stroke-opacity="0.14" stroke-width="2"/>
<path d="M15 23H12C11.4477 23 11 23.4477 11 24V28C11 28.5523 11.4477 29 12 29H15C15.5523 29 16 28.5523 16 28V27.8251C16 27.617 15.9173 27.4173 15.7701 27.2701L15.5469 27.0469C15.2779 26.7779 15.3515 26.3243 15.6918 26.1541C15.8807 26.0597 16 25.8666 16 25.6554V24C16 23.4477 15.5523 23 15 23Z" fill="white"/>
<path d="M15 23H12C11.4477 23 11 23.4477 11 24V28C11 28.5523 11.4477 29 12 29H15C15.5523 29 16 28.5523 16 28V27.8251C16 27.617 15.9173 27.4173 15.7701 27.2701L15.5469 27.0469C15.2779 26.7779 15.3515 26.3243 15.6918 26.1541C15.8807 26.0597 16 25.8666 16 25.6554V24C16 23.4477 15.5523 23 15 23Z" stroke="#06C569" stroke-width="2"/>
<path d="M15 23H12C11.4477 23 11 23.4477 11 24V28C11 28.5523 11.4477 29 12 29H15C15.5523 29 16 28.5523 16 28V27.8251C16 27.617 15.9173 27.4173 15.7701 27.2701L15.5469 27.0469C15.2779 26.7779 15.3515 26.3243 15.6918 26.1541C15.8807 26.0597 16 25.8666 16 25.6554V24C16 23.4477 15.5523 23 15 23Z" stroke="black" stroke-opacity="0.14" stroke-width="2"/>
<path d="M29 23H32C32.5523 23 33 23.4477 33 24V28C33 28.5523 32.5523 29 32 29H29C28.4477 29 28 28.5523 28 28V27.8251C28 27.617 28.0827 27.4173 28.2299 27.2701L28.4531 27.0469C28.7221 26.7779 28.6485 26.3243 28.3082 26.1541C28.1193 26.0597 28 25.8666 28 25.6554V24C28 23.4477 28.4477 23 29 23Z" fill="white"/>
<path d="M29 23H32C32.5523 23 33 23.4477 33 24V28C33 28.5523 32.5523 29 32 29H29C28.4477 29 28 28.5523 28 28V27.8251C28 27.617 28.0827 27.4173 28.2299 27.2701L28.4531 27.0469C28.7221 26.7779 28.6485 26.3243 28.3082 26.1541C28.1193 26.0597 28 25.8666 28 25.6554V24C28 23.4477 28.4477 23 29 23Z" stroke="#06C569" stroke-width="2"/>
<path d="M29 23H32C32.5523 23 33 23.4477 33 24V28C33 28.5523 32.5523 29 32 29H29C28.4477 29 28 28.5523 28 28V27.8251C28 27.617 28.0827 27.4173 28.2299 27.2701L28.4531 27.0469C28.7221 26.7779 28.6485 26.3243 28.3082 26.1541C28.1193 26.0597 28 25.8666 28 25.6554V24C28 23.4477 28.4477 23 29 23Z" stroke="black" stroke-opacity="0.14" stroke-width="2"/>
<rect x="19.1818" y="12" width="5.63636" height="3" fill="white"/>
<rect x="19.1818" y="12" width="5.63636" height="3" stroke="#06C569" stroke-width="2"/>
<rect x="19.1818" y="12" width="5.63636" height="3" stroke="black" stroke-opacity="0.14" stroke-width="2"/>
<path d="M27.8366 14.6005L26.9476 12.4275C26.6732 11.7569 25.799 11.5915 25.2987 12.1156L23.0862 14.4334C22.7686 14.7662 22.719 15.2727 22.9659 15.6608L24.7367 18.4434C25.1629 19.1132 26.1622 19.0431 26.4907 18.3203L27.8214 15.3929C27.9354 15.1422 27.9409 14.8555 27.8366 14.6005Z" fill="white"/>
<path d="M27.8366 14.6005L26.9476 12.4275C26.6732 11.7569 25.799 11.5915 25.2987 12.1156L23.0862 14.4334C22.7686 14.7662 22.719 15.2727 22.9659 15.6608L24.7367 18.4434C25.1629 19.1132 26.1622 19.0431 26.4907 18.3203L27.8214 15.3929C27.9354 15.1422 27.9409 14.8555 27.8366 14.6005Z" stroke="#06C569" stroke-width="2"/>
<path d="M27.8366 14.6005L26.9476 12.4275C26.6732 11.7569 25.799 11.5915 25.2987 12.1156L23.0862 14.4334C22.7686 14.7662 22.719 15.2727 22.9659 15.6608L24.7367 18.4434C25.1629 19.1132 26.1622 19.0431 26.4907 18.3203L27.8214 15.3929C27.9354 15.1422 27.9409 14.8555 27.8366 14.6005Z" stroke="black" stroke-opacity="0.14" stroke-width="2"/>
<path d="M16.1634 14.6005L17.0524 12.4275C17.3268 11.7569 18.201 11.5915 18.7013 12.1156L20.9138 14.4334C21.2314 14.7662 21.281 15.2727 21.0341 15.6608L19.2633 18.4434C18.8371 19.1132 17.8378 19.0431 17.5093 18.3203L16.1786 15.3929C16.0646 15.1422 16.0591 14.8555 16.1634 14.6005Z" fill="white"/>
<path d="M16.1634 14.6005L17.0524 12.4275C17.3268 11.7569 18.201 11.5915 18.7013 12.1156L20.9138 14.4334C21.2314 14.7662 21.281 15.2727 21.0341 15.6608L19.2633 18.4434C18.8371 19.1132 17.8378 19.0431 17.5093 18.3203L16.1786 15.3929C16.0646 15.1422 16.0591 14.8555 16.1634 14.6005Z" stroke="#06C569" stroke-width="2"/>
<path d="M16.1634 14.6005L17.0524 12.4275C17.3268 11.7569 18.201 11.5915 18.7013 12.1156L20.9138 14.4334C21.2314 14.7662 21.281 15.2727 21.0341 15.6608L19.2633 18.4434C18.8371 19.1132 17.8378 19.0431 17.5093 18.3203L16.1786 15.3929C16.0646 15.1422 16.0591 14.8555 16.1634 14.6005Z" stroke="black" stroke-opacity="0.14" stroke-width="2"/>
<line x1="22" y1="16" x2="22" y2="34" stroke="#06C569" stroke-width="2"/>
<line x1="22" y1="16" x2="22" y2="34" stroke="black" stroke-opacity="0.14" stroke-width="2"/>
</svg>
