<svg width="18" height="18" viewBox="0 0 18 18" fill="none" xmlns="http://www.w3.org/2000/svg">
<path d="M11.25 3H15.75M11.25 11.25H15.75M11.25 6.75H15.75M11.25 15H15.75M2.63475 7.11525C3.01875 7.5 3.6375 7.5 4.875 7.5C6.1125 7.5 6.73125 7.5 7.11525 7.11525C7.5 6.73125 7.5 6.1125 7.5 4.875C7.5 3.6375 7.5 3.01875 7.11525 2.63475C6.73125 2.25 6.1125 2.25 4.875 2.25C3.6375 2.25 3.01875 2.25 2.63475 2.63475C2.25 3.01875 2.25 3.6375 2.25 4.875C2.25 6.1125 2.25 6.73125 2.63475 7.11525ZM2.63475 15.3652C3.01875 15.75 3.6375 15.75 4.875 15.75C6.1125 15.75 6.73125 15.75 7.11525 15.3652C7.5 14.9812 7.5 14.3625 7.5 13.125C7.5 11.8875 7.5 11.2687 7.11525 10.8847C6.73125 10.5 6.1125 10.5 4.875 10.5C3.6375 10.5 3.01875 10.5 2.63475 10.8847C2.25 11.2687 2.25 11.8875 2.25 13.125C2.25 14.3625 2.25 14.9812 2.63475 15.3652Z" stroke="black" stroke-width="2" stroke-linecap="round" stroke-linejoin="round"/>
</svg>
