<svg width="47" height="48" viewBox="0 0 47 48" fill="none" xmlns="http://www.w3.org/2000/svg">
<path d="M11.1555 25.57C10.5032 26.4829 11.1558 27.7513 12.2779 27.7513L23.5555 27.7513V35.4816C23.5555 36.8234 25.2772 37.3753 26.0573 36.2835L35.9554 22.4302C36.6078 21.5172 35.9551 20.2489 34.8331 20.2489H23.5555L23.5555 12.5186C23.5555 11.1767 21.8338 10.6249 21.0537 11.7167L11.1555 25.57Z" fill="#06C569"/>
<path opacity="0.1" fill-rule="evenodd" clip-rule="evenodd" d="M26.0574 36.2834C25.2773 37.3752 23.5556 36.8233 23.5556 35.4815V27.7512H12.278C11.1559 27.7512 10.5033 26.4828 11.1556 25.5699L21.0538 11.7166C21.8339 10.6248 23.5556 11.1767 23.5556 12.5185V20.2488L34.8332 20.2488C35.9552 20.2488 36.6079 21.5171 35.9555 22.4301L26.0574 36.2834ZM29.0733 14.7311L29.0733 12.5185C29.0733 5.80926 20.4648 3.04985 16.5643 8.50886L6.66618 22.3622C3.40458 26.927 6.66767 33.2689 12.278 33.2689L18.0379 33.2689V35.4815C18.0379 42.1907 26.6464 44.9501 30.5468 39.4911L40.445 25.6378C43.7066 21.0729 40.4435 14.7311 34.8332 14.7311L29.0733 14.7311Z" fill="#06C569"/>
</svg>
