<svg width="16" height="16" viewBox="0 0 16 16" fill="none" xmlns="http://www.w3.org/2000/svg">
<path d="M7.99997 1.33334C7.12449 1.33334 6.25759 1.50577 5.44875 1.84081C4.63991 2.17584 3.90498 2.6669 3.28593 3.28596C2.03568 4.5362 1.33331 6.23189 1.33331 8C1.32748 9.53943 1.8605 11.0324 2.83997 12.22L1.50664 13.5533C1.41413 13.6471 1.35147 13.7661 1.32655 13.8955C1.30164 14.0248 1.31559 14.1586 1.36664 14.28C1.42201 14.4 1.51177 14.5008 1.62454 14.5696C1.7373 14.6384 1.86797 14.6722 1.99997 14.6667H7.99997C9.76808 14.6667 11.4638 13.9643 12.714 12.714C13.9643 11.4638 14.6666 9.76811 14.6666 8C14.6666 6.23189 13.9643 4.5362 12.714 3.28596C11.4638 2.03571 9.76808 1.33334 7.99997 1.33334ZM7.99997 13.3333H3.60664L4.22664 12.7133C4.35081 12.5884 4.4205 12.4195 4.4205 12.2433C4.4205 12.0672 4.35081 11.8982 4.22664 11.7733C3.3537 10.9014 2.81009 9.7537 2.68843 8.52587C2.56678 7.29804 2.8746 6.06601 3.55946 5.03968C4.24431 4.01336 5.26383 3.25624 6.44431 2.89732C7.6248 2.53839 8.89321 2.59987 10.0334 3.07128C11.1737 3.54268 12.1152 4.39485 12.6976 5.4826C13.28 6.57034 13.4672 7.82636 13.2274 9.03667C12.9876 10.247 12.3355 11.3367 11.3823 12.1202C10.4292 12.9036 9.23381 13.3324 7.99997 13.3333ZM11.3333 7.33334H4.66664C4.48983 7.33334 4.32026 7.40357 4.19523 7.5286C4.07021 7.65362 3.99997 7.82319 3.99997 8C3.99997 8.17681 4.07021 8.34638 4.19523 8.47141C4.32026 8.59643 4.48983 8.66667 4.66664 8.66667H11.3333C11.5101 8.66667 11.6797 8.59643 11.8047 8.47141C11.9297 8.34638 12 8.17681 12 8C12 7.82319 11.9297 7.65362 11.8047 7.5286C11.6797 7.40357 11.5101 7.33334 11.3333 7.33334ZM9.99997 10H5.99997C5.82316 10 5.65359 10.0702 5.52857 10.1953C5.40354 10.3203 5.3333 10.4899 5.3333 10.6667C5.3333 10.8435 5.40354 11.0131 5.52857 11.1381C5.65359 11.2631 5.82316 11.3333 5.99997 11.3333H9.99997C10.1768 11.3333 10.3464 11.2631 10.4714 11.1381C10.5964 11.0131 10.6666 10.8435 10.6666 10.6667C10.6666 10.4899 10.5964 10.3203 10.4714 10.1953C10.3464 10.0702 10.1768 10 9.99997 10ZM5.99997 6H9.99997C10.1768 6 10.3464 5.92976 10.4714 5.80474C10.5964 5.67972 10.6666 5.51015 10.6666 5.33334C10.6666 5.15652 10.5964 4.98696 10.4714 4.86193C10.3464 4.73691 10.1768 4.66667 9.99997 4.66667H5.99997C5.82316 4.66667 5.65359 4.73691 5.52857 4.86193C5.40354 4.98696 5.3333 5.15652 5.3333 5.33334C5.3333 5.51015 5.40354 5.67972 5.52857 5.80474C5.65359 5.92976 5.82316 6 5.99997 6Z" fill="black"/>
</svg>
