<svg width="16" height="17" viewBox="0 0 16 17" fill="none" xmlns="http://www.w3.org/2000/svg">
<path d="M7.52665 10.6933C7.49798 10.725 7.47126 10.7584 7.44665 10.7933C7.42142 10.8305 7.40124 10.8709 7.38665 10.9133C7.36743 10.9511 7.35395 10.9916 7.34665 11.0333C7.34338 11.0777 7.34338 11.1223 7.34665 11.1667C7.3444 11.2541 7.36266 11.3409 7.39998 11.42C7.42992 11.5027 7.47769 11.5779 7.53991 11.6401C7.60212 11.7023 7.67725 11.7501 7.75998 11.78C7.83978 11.8153 7.92607 11.8335 8.01332 11.8335C8.10056 11.8335 8.18685 11.8153 8.26665 11.78C8.34938 11.7501 8.42451 11.7023 8.48673 11.6401C8.54894 11.5779 8.59671 11.5027 8.62665 11.42C8.65625 11.3389 8.66984 11.2529 8.66665 11.1667C8.66716 11.0789 8.65034 10.992 8.61716 10.9107C8.58399 10.8295 8.5351 10.7556 8.47332 10.6933C8.41134 10.6309 8.33761 10.5813 8.25637 10.5474C8.17513 10.5136 8.08799 10.4961 7.99998 10.4961C7.91197 10.4961 7.82484 10.5136 7.7436 10.5474C7.66236 10.5813 7.58862 10.6309 7.52665 10.6933ZM7.99998 1.83334C6.68144 1.83334 5.39251 2.22433 4.29618 2.95687C3.19985 3.68941 2.34537 4.73061 1.84079 5.94878C1.3362 7.16695 1.20418 8.5074 1.46141 9.8006C1.71865 11.0938 2.35359 12.2817 3.28594 13.214C4.21829 14.1464 5.40617 14.7813 6.69938 15.0386C7.99259 15.2958 9.33303 15.1638 10.5512 14.6592C11.7694 14.1546 12.8106 13.3001 13.5431 12.2038C14.2757 11.1075 14.6666 9.81854 14.6666 8.5C14.6666 7.62452 14.4942 6.75762 14.1592 5.94878C13.8241 5.13994 13.3331 4.40501 12.714 3.78596C12.095 3.1669 11.36 2.67584 10.5512 2.34081C9.74237 2.00577 8.87546 1.83334 7.99998 1.83334ZM7.99998 13.8333C6.94515 13.8333 5.914 13.5205 5.03694 12.9345C4.15988 12.3485 3.47629 11.5155 3.07263 10.541C2.66896 9.56644 2.56334 8.49409 2.76913 7.45952C2.97492 6.42496 3.48287 5.47465 4.22875 4.72877C4.97463 3.98289 5.92494 3.47494 6.9595 3.26915C7.99407 3.06336 9.06642 3.16898 10.041 3.57265C11.0155 3.97631 11.8485 4.6599 12.4345 5.53696C13.0205 6.41402 13.3333 7.44517 13.3333 8.5C13.3333 9.91449 12.7714 11.271 11.7712 12.2712C10.771 13.2714 9.41447 13.8333 7.99998 13.8333ZM7.99998 5.16667C7.64869 5.16644 7.30354 5.25875 6.99926 5.4343C6.69497 5.60985 6.44229 5.86244 6.26665 6.16667C6.21841 6.24255 6.18603 6.3274 6.17143 6.41612C6.15684 6.50484 6.16034 6.5956 6.18174 6.68293C6.20313 6.77026 6.24196 6.85236 6.29591 6.92429C6.34985 6.99623 6.41779 7.0565 6.49563 7.1015C6.57347 7.1465 6.65962 7.17528 6.74887 7.18612C6.83813 7.19696 6.92866 7.18964 7.01501 7.16459C7.10136 7.13954 7.18175 7.09728 7.25135 7.04035C7.32094 6.98342 7.37831 6.91301 7.41998 6.83334C7.47872 6.7316 7.5633 6.64719 7.66515 6.58865C7.767 6.53012 7.88251 6.49954 7.99998 6.5C8.17679 6.5 8.34636 6.57024 8.47139 6.69526C8.59641 6.82029 8.66665 6.98986 8.66665 7.16667C8.66665 7.34348 8.59641 7.51305 8.47139 7.63807C8.34636 7.7631 8.17679 7.83334 7.99998 7.83334C7.82317 7.83334 7.6536 7.90357 7.52858 8.0286C7.40355 8.15362 7.33332 8.32319 7.33332 8.5V9.16667C7.33332 9.34348 7.40355 9.51305 7.52858 9.63807C7.6536 9.7631 7.82317 9.83334 7.99998 9.83334C8.17679 9.83334 8.34636 9.7631 8.47139 9.63807C8.59641 9.51305 8.66665 9.34348 8.66665 9.16667V9.04667C9.10756 8.88668 9.47822 8.57682 9.71383 8.17125C9.94944 7.76568 10.035 7.2902 9.95558 6.82793C9.87615 6.36566 9.63678 5.94601 9.27931 5.64235C8.92184 5.33868 8.46901 5.17031 7.99998 5.16667Z" fill="black"/>
</svg>
