<svg width="17" height="16" viewBox="0 0 17 16" fill="none" xmlns="http://www.w3.org/2000/svg">
<path d="M15.2311 13.5267L12.7578 11.0733C13.7179 9.87627 14.1828 8.35686 14.057 6.82753C13.9312 5.2982 13.2243 3.87519 12.0815 2.85109C10.9387 1.827 9.44701 1.27967 7.91309 1.32164C6.37917 1.36362 4.91962 1.99171 3.83457 3.07676C2.74952 4.16181 2.12143 5.62136 2.07946 7.15528C2.03748 8.6892 2.58481 10.1809 3.60891 11.3237C4.633 12.4664 6.05601 13.1734 7.58534 13.2992C9.11467 13.425 10.6341 12.9601 11.8311 12L14.2845 14.4533C14.3465 14.5158 14.4202 14.5654 14.5014 14.5993C14.5827 14.6331 14.6698 14.6505 14.7578 14.6505C14.8458 14.6505 14.933 14.6331 15.0142 14.5993C15.0954 14.5654 15.1692 14.5158 15.2311 14.4533C15.3513 14.329 15.4185 14.1629 15.4185 13.99C15.4185 13.8171 15.3513 13.651 15.2311 13.5267ZM8.09114 12C7.16816 12 6.26591 11.7263 5.49848 11.2135C4.73105 10.7007 4.13291 9.97191 3.77971 9.11919C3.4265 8.26646 3.33408 7.32815 3.51415 6.42291C3.69421 5.51766 4.13867 4.68614 4.79131 4.0335C5.44396 3.38085 6.27548 2.9364 7.18072 2.75633C8.08597 2.57627 9.02428 2.66868 9.877 3.02189C10.7297 3.3751 11.4586 3.97324 11.9713 4.74067C12.4841 5.5081 12.7578 6.41035 12.7578 7.33333C12.7578 8.57101 12.2661 9.75799 11.391 10.6332C10.5158 11.5083 9.32882 12 8.09114 12Z" fill="white"/>
</svg>
