<svg width="114" height="38" viewBox="0 0 114 38" fill="none" xmlns="http://www.w3.org/2000/svg">
<path d="M6.15563 20.57C5.50331 21.4829 6.15593 22.7513 7.278 22.7513L18.5556 22.7513V30.4816C18.5556 31.8234 20.2773 32.3753 21.0574 31.2835L30.9555 17.4302C31.6078 16.5172 30.9552 15.2489 29.8332 15.2489H18.5556L18.5556 7.5186C18.5556 6.17675 16.8339 5.62487 16.0538 6.71667L6.15563 20.57Z" fill="#06C569"/>
<path opacity="0.1" fill-rule="evenodd" clip-rule="evenodd" d="M21.0574 31.2834C20.2773 32.3752 18.5556 31.8233 18.5557 30.4815V22.7512H7.27807C6.156 22.7512 5.50339 21.4828 6.15571 20.5699L16.0539 6.71658C16.834 5.62478 18.5557 6.17666 18.5557 7.51851V15.2488L29.8332 15.2488C30.9553 15.2488 31.6079 16.5171 30.9556 17.4301L21.0574 31.2834ZM24.0733 9.73109L24.0733 7.51851C24.0733 0.809263 15.4649 -1.95015 11.5644 3.50886L1.66625 17.3622C-1.59535 21.927 1.66773 28.2689 7.27807 28.2689L13.038 28.2689V30.4815C13.038 37.1907 21.6464 39.9501 25.5469 34.4911L35.4451 20.6378C38.7067 16.0729 35.4436 9.73109 29.8332 9.73109L24.0733 9.73109Z" fill="#06C569"/>
<path d="M47.6139 15.1287H51.5251V12.315H40.6096V15.1287H44.5208V26.2836H47.6139V15.1287Z" fill="black"/>
<path d="M51.6451 21.9134H58.4299V19.3592H51.6451V21.9134Z" fill="black"/>
<path d="M58.9688 26.2836H62.2414L62.9798 23.6096H68.8067L69.545 26.2836H72.8177L68.667 12.315H63.1195L58.9688 26.2836ZM63.7381 20.8159L65.8733 12.9536H65.9132L68.0484 20.8159H63.7381Z" fill="black"/>
<path d="M80.7484 11.8561C79.9502 11.5767 79.2318 11.437 78.4336 11.437C75.8794 11.437 74.3229 13.233 74.3229 15.6276V16.3061H72.4471V19.0998H74.3229V26.2836H77.3161V19.0998H80.7484V16.3061H77.3161V15.867C77.3161 14.6498 77.9946 14.1509 79.1121 14.1509C79.6908 14.1509 80.2495 14.2706 80.7484 14.4502V11.8561Z" fill="black"/>
<path d="M81.5533 26.2836H84.5466V20.9157C84.5466 19.6186 85.5044 18.9202 86.5621 18.9202C86.9412 18.9202 87.4002 19.02 87.6995 19.1397V16.0267H87.2006C85.5842 16.0267 84.786 17.0444 84.5865 17.8825H84.5466V16.3061H81.5533V26.2836Z" fill="black"/>
<path d="M88.2967 13.1731C88.2967 14.1709 89.0151 14.8693 89.9929 14.8693C90.9707 14.8693 91.6891 14.1709 91.6891 13.1731C91.6891 12.1754 90.9707 11.4769 89.9929 11.4769C89.0151 11.4769 88.2967 12.1754 88.2967 13.1731ZM88.4963 26.2836H91.4896V16.3061H88.4963V26.2836Z" fill="black"/>
<path d="M98.09 26.563C99.8461 26.563 101.383 25.7448 102.301 24.6273L100.066 22.8513C99.6465 23.3303 98.9481 23.7693 98.09 23.7693C96.7131 23.7693 95.6555 22.7715 95.6555 21.2948C95.6555 19.8182 96.7131 18.8204 98.09 18.8204C98.9481 18.8204 99.6465 19.2594 100.066 19.7383L102.301 17.9623C101.383 16.8448 99.8461 16.0267 98.09 16.0267C94.9571 16.0267 92.6622 18.2417 92.6622 21.2948C92.6622 24.348 94.9571 26.563 98.09 26.563Z" fill="black"/>
<path d="M107.173 16.0267C104.519 16.0267 102.743 18.2218 102.743 21.2948C102.743 24.3679 104.519 26.563 107.173 26.563C108.729 26.563 109.986 25.8047 110.765 24.5475V26.2836H113.758V16.3061H110.765V18.0422C109.986 16.785 108.729 16.0267 107.173 16.0267ZM110.765 21.2948C110.765 22.7316 109.687 23.8491 108.25 23.8491C106.814 23.8491 105.736 22.7316 105.736 21.2948C105.736 19.8581 106.814 18.7406 108.25 18.7406C109.687 18.7406 110.765 19.8581 110.765 21.2948Z" fill="black"/>
</svg>
