<svg width="45" height="45" viewBox="0 0 45 45" fill="none" xmlns="http://www.w3.org/2000/svg">
<rect width="45" height="45" rx="22.5" fill="white"/>
<rect x="10" y="17.7097" width="25" height="3.22581" rx="1.6129" stroke="#06C569" stroke-width="2"/>
<rect x="10" y="17.7097" width="25" height="3.22581" rx="1.6129" stroke="black" stroke-opacity="0.14" stroke-width="2"/>
<path d="M15 15C15 14.4477 15.4477 14 16 14H29C29.5523 14 30 14.4477 30 15V32H15V15Z" fill="white"/>
<path d="M15 15C15 14.4477 15.4477 14 16 14H29C29.5523 14 30 14.4477 30 15V32H15V15Z" stroke="#06C569" stroke-width="2"/>
<path d="M15 15C15 14.4477 15.4477 14 16 14H29C29.5523 14 30 14.4477 30 15V32H15V15Z" stroke="black" stroke-opacity="0.14" stroke-width="2"/>
</svg>
