<svg width="10" height="5" viewBox="0 0 10 5" fill="none" xmlns="http://www.w3.org/2000/svg">
<path d="M5.00002 4.83333C4.86372 4.8336 4.73163 4.78613 4.62668 4.69917L1.12669 1.7825C1.00756 1.68348 0.932644 1.5412 0.918423 1.38695C0.904201 1.2327 0.951838 1.07912 1.05085 0.959998C1.14987 0.840871 1.29215 0.765957 1.4464 0.751736C1.60064 0.737514 1.75423 0.78515 1.87335 0.884164L5.00002 3.4975L8.12669 0.977498C8.18635 0.929043 8.25501 0.892858 8.32871 0.871023C8.4024 0.849188 8.47969 0.842133 8.55612 0.850264C8.63256 0.858395 8.70663 0.881552 8.77409 0.918403C8.84154 0.955255 8.90105 1.00507 8.94919 1.065C9.00261 1.12498 9.04307 1.19534 9.06803 1.27169C9.09299 1.34803 9.10192 1.4287 9.09425 1.50866C9.08658 1.58861 9.06249 1.66612 9.02347 1.73633C8.98446 1.80654 8.93136 1.86793 8.86752 1.91666L5.36752 4.73416C5.25955 4.80738 5.13016 4.8423 5.00002 4.83333Z" fill="#9CA3AF"/>
</svg>
